{
	"patcher" : 	{
		"fileversion" : 1,
		"rect" : [ 72.0, 256.0, 276.0, 278.0 ],
		"bgcolor" : [ 0.0, 0.0, 0.0, 1.0 ],
		"bglocked" : 0,
		"defrect" : [ 72.0, 256.0, 276.0, 278.0 ],
		"openrect" : [ 0.0, 0.0, 0.0, 0.0 ],
		"openinpresentation" : 1,
		"default_fontsize" : 12.0,
		"default_fontface" : 0,
		"default_fontname" : "Arial",
		"gridonopen" : 0,
		"gridsize" : [ 15.0, 15.0 ],
		"gridsnaponopen" : 0,
		"toolbarvisible" : 1,
		"boxanimatetime" : 200,
		"imprint" : 0,
		"enablehscroll" : 1,
		"enablevscroll" : 1,
		"devicewidth" : 0.0,
		"boxes" : [ 			{
				"box" : 				{
					"maxclass" : "newobj",
					"text" : "route 1 2 3 4 5 6 7 8",
					"linecount" : 4,
					"fontsize" : 12.0,
					"outlettype" : [ "", "", "", "", "", "", "", "", "" ],
					"patching_rect" : [ 218.0, 60.0, 39.0, 62.0 ],
					"fontname" : "Arial",
					"numinlets" : 1,
					"id" : "obj-2",
					"numoutlets" : 9
				}

			}
, 			{
				"box" : 				{
					"maxclass" : "newobj",
					"text" : "r hatvo",
					"fontsize" : 12.0,
					"outlettype" : [ "" ],
					"patching_rect" : [ 218.0, 34.0, 47.0, 20.0 ],
					"fontname" : "Arial",
					"numinlets" : 0,
					"id" : "obj-1",
					"numoutlets" : 1
				}

			}
, 			{
				"box" : 				{
					"maxclass" : "led",
					"outlettype" : [ "int" ],
					"patching_rect" : [ 35.0, 7.0, 16.0, 16.0 ],
					"presentation" : 1,
					"oncolor" : [ 0.945098, 0.913725, 0.407843, 1.0 ],
					"bgcolor" : [ 0.0, 0.0, 0.0, 0.0 ],
					"offcolor" : [ 0.145098, 0.07451, 0.376471, 1.0 ],
					"numinlets" : 1,
					"id" : "obj-264",
					"presentation_rect" : [ 31.0, 5.0, 16.0, 16.0 ],
					"numoutlets" : 1
				}

			}
, 			{
				"box" : 				{
					"maxclass" : "led",
					"outlettype" : [ "int" ],
					"patching_rect" : [ 35.0, 35.0, 16.0, 16.0 ],
					"presentation" : 1,
					"oncolor" : [ 0.945098, 0.913725, 0.407843, 1.0 ],
					"bgcolor" : [ 0.0, 0.0, 0.0, 0.0 ],
					"offcolor" : [ 0.145098, 0.07451, 0.376471, 1.0 ],
					"numinlets" : 1,
					"id" : "obj-263",
					"presentation_rect" : [ 31.0, 31.0, 16.0, 16.0 ],
					"numoutlets" : 1
				}

			}
, 			{
				"box" : 				{
					"maxclass" : "led",
					"outlettype" : [ "int" ],
					"patching_rect" : [ 7.0, 7.0, 16.0, 16.0 ],
					"presentation" : 1,
					"oncolor" : [ 0.945098, 0.913725, 0.407843, 1.0 ],
					"bgcolor" : [ 0.0, 0.0, 0.0, 0.0 ],
					"offcolor" : [ 0.145098, 0.07451, 0.376471, 1.0 ],
					"numinlets" : 1,
					"id" : "obj-262",
					"presentation_rect" : [ 5.0, 5.0, 16.0, 16.0 ],
					"numoutlets" : 1
				}

			}
, 			{
				"box" : 				{
					"maxclass" : "led",
					"outlettype" : [ "int" ],
					"patching_rect" : [ 7.0, 35.0, 16.0, 16.0 ],
					"presentation" : 1,
					"oncolor" : [ 0.945098, 0.913725, 0.407843, 1.0 ],
					"bgcolor" : [ 0.0, 0.0, 0.0, 0.0 ],
					"offcolor" : [ 0.145098, 0.07451, 0.376471, 1.0 ],
					"numinlets" : 1,
					"id" : "obj-261",
					"presentation_rect" : [ 5.0, 31.0, 16.0, 16.0 ],
					"numoutlets" : 1
				}

			}
, 			{
				"box" : 				{
					"maxclass" : "led",
					"outlettype" : [ "int" ],
					"patching_rect" : [ 21.0, 41.0, 16.0, 16.0 ],
					"presentation" : 1,
					"oncolor" : [ 0.945098, 0.913725, 0.407843, 1.0 ],
					"bgcolor" : [ 0.0, 0.0, 0.0, 0.0 ],
					"offcolor" : [ 0.145098, 0.07451, 0.376471, 1.0 ],
					"numinlets" : 1,
					"id" : "obj-260",
					"presentation_rect" : [ 18.0, 37.0, 16.0, 16.0 ],
					"numoutlets" : 1
				}

			}
, 			{
				"box" : 				{
					"maxclass" : "led",
					"outlettype" : [ "int" ],
					"patching_rect" : [ 41.0, 21.0, 16.0, 16.0 ],
					"presentation" : 1,
					"oncolor" : [ 0.945098, 0.913725, 0.407843, 1.0 ],
					"bgcolor" : [ 0.0, 0.0, 0.0, 0.0 ],
					"offcolor" : [ 0.145098, 0.07451, 0.376471, 1.0 ],
					"numinlets" : 1,
					"id" : "obj-259",
					"presentation_rect" : [ 37.0, 18.0, 16.0, 16.0 ],
					"numoutlets" : 1
				}

			}
, 			{
				"box" : 				{
					"maxclass" : "led",
					"outlettype" : [ "int" ],
					"patching_rect" : [ 1.0, 21.0, 16.0, 16.0 ],
					"presentation" : 1,
					"oncolor" : [ 0.945098, 0.913725, 0.407843, 1.0 ],
					"bgcolor" : [ 0.0, 0.0, 0.0, 0.0 ],
					"offcolor" : [ 0.145098, 0.07451, 0.376471, 1.0 ],
					"numinlets" : 1,
					"id" : "obj-258",
					"presentation_rect" : [ -1.0, 18.0, 16.0, 16.0 ],
					"numoutlets" : 1
				}

			}
, 			{
				"box" : 				{
					"maxclass" : "led",
					"outlettype" : [ "int" ],
					"patching_rect" : [ 21.0, 1.0, 16.0, 16.0 ],
					"presentation" : 1,
					"oncolor" : [ 0.945098, 0.913725, 0.407843, 1.0 ],
					"bgcolor" : [ 0.0, 0.0, 0.0, 0.0 ],
					"offcolor" : [ 0.145098, 0.07451, 0.376471, 1.0 ],
					"numinlets" : 1,
					"id" : "obj-257",
					"presentation_rect" : [ 18.0, -1.0, 16.0, 16.0 ],
					"numoutlets" : 1
				}

			}
, 			{
				"box" : 				{
					"maxclass" : "panel",
					"patching_rect" : [ 170.0, 308.0, 28.0, 28.0 ],
					"bgcolor" : [ 0.945098, 0.913725, 0.407843, 1.0 ],
					"bordercolor" : [ 0.945098, 0.913725, 0.407843, 1.0 ],
					"rounded" : 12,
					"grad1" : [ 0.945098, 0.913725, 0.407843, 1.0 ],
					"numinlets" : 1,
					"grad2" : [ 0.945098, 0.913725, 0.407843, 1.0 ],
					"id" : "obj-53",
					"numoutlets" : 0
				}

			}
, 			{
				"box" : 				{
					"maxclass" : "panel",
					"patching_rect" : [ 170.0, 308.0, 28.0, 28.0 ],
					"bgcolor" : [ 0.945098, 0.913725, 0.407843, 1.0 ],
					"bordercolor" : [ 0.945098, 0.913725, 0.407843, 1.0 ],
					"rounded" : 12,
					"grad1" : [ 0.945098, 0.913725, 0.407843, 1.0 ],
					"numinlets" : 1,
					"grad2" : [ 0.945098, 0.913725, 0.407843, 1.0 ],
					"id" : "obj-54",
					"numoutlets" : 0
				}

			}
, 			{
				"box" : 				{
					"maxclass" : "panel",
					"patching_rect" : [ 170.0, 308.0, 28.0, 28.0 ],
					"bgcolor" : [ 0.945098, 0.913725, 0.407843, 1.0 ],
					"bordercolor" : [ 0.945098, 0.913725, 0.407843, 1.0 ],
					"rounded" : 12,
					"grad1" : [ 0.945098, 0.913725, 0.407843, 1.0 ],
					"numinlets" : 1,
					"grad2" : [ 0.945098, 0.913725, 0.407843, 1.0 ],
					"id" : "obj-55",
					"numoutlets" : 0
				}

			}
, 			{
				"box" : 				{
					"maxclass" : "panel",
					"patching_rect" : [ 170.0, 308.0, 28.0, 28.0 ],
					"bgcolor" : [ 0.945098, 0.913725, 0.407843, 1.0 ],
					"bordercolor" : [ 0.945098, 0.913725, 0.407843, 1.0 ],
					"rounded" : 12,
					"grad1" : [ 0.945098, 0.913725, 0.407843, 1.0 ],
					"numinlets" : 1,
					"grad2" : [ 0.945098, 0.913725, 0.407843, 1.0 ],
					"id" : "obj-56",
					"numoutlets" : 0
				}

			}
, 			{
				"box" : 				{
					"maxclass" : "panel",
					"patching_rect" : [ 170.0, 308.0, 28.0, 28.0 ],
					"bgcolor" : [ 0.945098, 0.913725, 0.407843, 1.0 ],
					"bordercolor" : [ 0.945098, 0.913725, 0.407843, 1.0 ],
					"rounded" : 12,
					"grad1" : [ 0.945098, 0.913725, 0.407843, 1.0 ],
					"numinlets" : 1,
					"grad2" : [ 0.945098, 0.913725, 0.407843, 1.0 ],
					"id" : "obj-57",
					"numoutlets" : 0
				}

			}
, 			{
				"box" : 				{
					"maxclass" : "panel",
					"patching_rect" : [ 170.0, 308.0, 28.0, 28.0 ],
					"bgcolor" : [ 0.945098, 0.913725, 0.407843, 1.0 ],
					"bordercolor" : [ 0.945098, 0.913725, 0.407843, 1.0 ],
					"rounded" : 12,
					"grad1" : [ 0.945098, 0.913725, 0.407843, 1.0 ],
					"numinlets" : 1,
					"grad2" : [ 0.945098, 0.913725, 0.407843, 1.0 ],
					"id" : "obj-58",
					"numoutlets" : 0
				}

			}
, 			{
				"box" : 				{
					"maxclass" : "panel",
					"patching_rect" : [ 170.0, 308.0, 28.0, 28.0 ],
					"bgcolor" : [ 0.945098, 0.913725, 0.407843, 1.0 ],
					"bordercolor" : [ 0.945098, 0.913725, 0.407843, 1.0 ],
					"rounded" : 12,
					"grad1" : [ 0.945098, 0.913725, 0.407843, 1.0 ],
					"numinlets" : 1,
					"grad2" : [ 0.945098, 0.913725, 0.407843, 1.0 ],
					"id" : "obj-59",
					"numoutlets" : 0
				}

			}
, 			{
				"box" : 				{
					"maxclass" : "panel",
					"patching_rect" : [ 170.0, 308.0, 28.0, 28.0 ],
					"bgcolor" : [ 0.945098, 0.913725, 0.407843, 1.0 ],
					"bordercolor" : [ 0.945098, 0.913725, 0.407843, 1.0 ],
					"rounded" : 12,
					"grad1" : [ 0.945098, 0.913725, 0.407843, 1.0 ],
					"numinlets" : 1,
					"grad2" : [ 0.945098, 0.913725, 0.407843, 1.0 ],
					"id" : "obj-60",
					"numoutlets" : 0
				}

			}
, 			{
				"box" : 				{
					"maxclass" : "panel",
					"patching_rect" : [ 155.0, 293.0, 28.0, 28.0 ],
					"bgcolor" : [ 0.945098, 0.913725, 0.407843, 1.0 ],
					"bordercolor" : [ 0.945098, 0.913725, 0.407843, 1.0 ],
					"rounded" : 12,
					"grad1" : [ 0.945098, 0.913725, 0.407843, 1.0 ],
					"numinlets" : 1,
					"grad2" : [ 0.945098, 0.913725, 0.407843, 1.0 ],
					"id" : "obj-45",
					"numoutlets" : 0
				}

			}
, 			{
				"box" : 				{
					"maxclass" : "panel",
					"patching_rect" : [ 155.0, 293.0, 28.0, 28.0 ],
					"bgcolor" : [ 0.945098, 0.913725, 0.407843, 1.0 ],
					"bordercolor" : [ 0.945098, 0.913725, 0.407843, 1.0 ],
					"rounded" : 12,
					"grad1" : [ 0.945098, 0.913725, 0.407843, 1.0 ],
					"numinlets" : 1,
					"grad2" : [ 0.945098, 0.913725, 0.407843, 1.0 ],
					"id" : "obj-46",
					"numoutlets" : 0
				}

			}
, 			{
				"box" : 				{
					"maxclass" : "panel",
					"patching_rect" : [ 155.0, 293.0, 28.0, 28.0 ],
					"bgcolor" : [ 0.945098, 0.913725, 0.407843, 1.0 ],
					"bordercolor" : [ 0.945098, 0.913725, 0.407843, 1.0 ],
					"rounded" : 12,
					"grad1" : [ 0.945098, 0.913725, 0.407843, 1.0 ],
					"numinlets" : 1,
					"grad2" : [ 0.945098, 0.913725, 0.407843, 1.0 ],
					"id" : "obj-47",
					"numoutlets" : 0
				}

			}
, 			{
				"box" : 				{
					"maxclass" : "panel",
					"patching_rect" : [ 155.0, 293.0, 28.0, 28.0 ],
					"bgcolor" : [ 0.945098, 0.913725, 0.407843, 1.0 ],
					"bordercolor" : [ 0.945098, 0.913725, 0.407843, 1.0 ],
					"rounded" : 12,
					"grad1" : [ 0.945098, 0.913725, 0.407843, 1.0 ],
					"numinlets" : 1,
					"grad2" : [ 0.945098, 0.913725, 0.407843, 1.0 ],
					"id" : "obj-48",
					"numoutlets" : 0
				}

			}
, 			{
				"box" : 				{
					"maxclass" : "panel",
					"patching_rect" : [ 155.0, 293.0, 28.0, 28.0 ],
					"bgcolor" : [ 0.945098, 0.913725, 0.407843, 1.0 ],
					"bordercolor" : [ 0.945098, 0.913725, 0.407843, 1.0 ],
					"rounded" : 12,
					"grad1" : [ 0.945098, 0.913725, 0.407843, 1.0 ],
					"numinlets" : 1,
					"grad2" : [ 0.945098, 0.913725, 0.407843, 1.0 ],
					"id" : "obj-49",
					"numoutlets" : 0
				}

			}
, 			{
				"box" : 				{
					"maxclass" : "panel",
					"patching_rect" : [ 155.0, 293.0, 28.0, 28.0 ],
					"bgcolor" : [ 0.945098, 0.913725, 0.407843, 1.0 ],
					"bordercolor" : [ 0.945098, 0.913725, 0.407843, 1.0 ],
					"rounded" : 12,
					"grad1" : [ 0.945098, 0.913725, 0.407843, 1.0 ],
					"numinlets" : 1,
					"grad2" : [ 0.945098, 0.913725, 0.407843, 1.0 ],
					"id" : "obj-50",
					"numoutlets" : 0
				}

			}
, 			{
				"box" : 				{
					"maxclass" : "panel",
					"patching_rect" : [ 155.0, 293.0, 28.0, 28.0 ],
					"bgcolor" : [ 0.945098, 0.913725, 0.407843, 1.0 ],
					"bordercolor" : [ 0.945098, 0.913725, 0.407843, 1.0 ],
					"rounded" : 12,
					"grad1" : [ 0.945098, 0.913725, 0.407843, 1.0 ],
					"numinlets" : 1,
					"grad2" : [ 0.945098, 0.913725, 0.407843, 1.0 ],
					"id" : "obj-51",
					"numoutlets" : 0
				}

			}
, 			{
				"box" : 				{
					"maxclass" : "panel",
					"patching_rect" : [ 155.0, 293.0, 28.0, 28.0 ],
					"bgcolor" : [ 0.945098, 0.913725, 0.407843, 1.0 ],
					"bordercolor" : [ 0.945098, 0.913725, 0.407843, 1.0 ],
					"rounded" : 12,
					"grad1" : [ 0.945098, 0.913725, 0.407843, 1.0 ],
					"numinlets" : 1,
					"grad2" : [ 0.945098, 0.913725, 0.407843, 1.0 ],
					"id" : "obj-52",
					"numoutlets" : 0
				}

			}
, 			{
				"box" : 				{
					"maxclass" : "panel",
					"patching_rect" : [ 140.0, 278.0, 28.0, 28.0 ],
					"bgcolor" : [ 0.945098, 0.913725, 0.407843, 1.0 ],
					"bordercolor" : [ 0.945098, 0.913725, 0.407843, 1.0 ],
					"rounded" : 12,
					"grad1" : [ 0.945098, 0.913725, 0.407843, 1.0 ],
					"numinlets" : 1,
					"grad2" : [ 0.945098, 0.913725, 0.407843, 1.0 ],
					"id" : "obj-37",
					"numoutlets" : 0
				}

			}
, 			{
				"box" : 				{
					"maxclass" : "panel",
					"patching_rect" : [ 140.0, 278.0, 28.0, 28.0 ],
					"bgcolor" : [ 0.945098, 0.913725, 0.407843, 1.0 ],
					"bordercolor" : [ 0.945098, 0.913725, 0.407843, 1.0 ],
					"rounded" : 12,
					"grad1" : [ 0.945098, 0.913725, 0.407843, 1.0 ],
					"numinlets" : 1,
					"grad2" : [ 0.945098, 0.913725, 0.407843, 1.0 ],
					"id" : "obj-38",
					"numoutlets" : 0
				}

			}
, 			{
				"box" : 				{
					"maxclass" : "panel",
					"patching_rect" : [ 140.0, 278.0, 28.0, 28.0 ],
					"bgcolor" : [ 0.945098, 0.913725, 0.407843, 1.0 ],
					"bordercolor" : [ 0.945098, 0.913725, 0.407843, 1.0 ],
					"rounded" : 12,
					"grad1" : [ 0.945098, 0.913725, 0.407843, 1.0 ],
					"numinlets" : 1,
					"grad2" : [ 0.945098, 0.913725, 0.407843, 1.0 ],
					"id" : "obj-39",
					"numoutlets" : 0
				}

			}
, 			{
				"box" : 				{
					"maxclass" : "panel",
					"patching_rect" : [ 140.0, 278.0, 28.0, 28.0 ],
					"bgcolor" : [ 0.945098, 0.913725, 0.407843, 1.0 ],
					"bordercolor" : [ 0.945098, 0.913725, 0.407843, 1.0 ],
					"rounded" : 12,
					"grad1" : [ 0.945098, 0.913725, 0.407843, 1.0 ],
					"numinlets" : 1,
					"grad2" : [ 0.945098, 0.913725, 0.407843, 1.0 ],
					"id" : "obj-40",
					"numoutlets" : 0
				}

			}
, 			{
				"box" : 				{
					"maxclass" : "panel",
					"patching_rect" : [ 140.0, 278.0, 28.0, 28.0 ],
					"bgcolor" : [ 0.945098, 0.913725, 0.407843, 1.0 ],
					"bordercolor" : [ 0.945098, 0.913725, 0.407843, 1.0 ],
					"rounded" : 12,
					"grad1" : [ 0.945098, 0.913725, 0.407843, 1.0 ],
					"numinlets" : 1,
					"grad2" : [ 0.945098, 0.913725, 0.407843, 1.0 ],
					"id" : "obj-41",
					"numoutlets" : 0
				}

			}
, 			{
				"box" : 				{
					"maxclass" : "panel",
					"patching_rect" : [ 140.0, 278.0, 28.0, 28.0 ],
					"bgcolor" : [ 0.945098, 0.913725, 0.407843, 1.0 ],
					"bordercolor" : [ 0.945098, 0.913725, 0.407843, 1.0 ],
					"rounded" : 12,
					"grad1" : [ 0.945098, 0.913725, 0.407843, 1.0 ],
					"numinlets" : 1,
					"grad2" : [ 0.945098, 0.913725, 0.407843, 1.0 ],
					"id" : "obj-42",
					"numoutlets" : 0
				}

			}
, 			{
				"box" : 				{
					"maxclass" : "panel",
					"patching_rect" : [ 140.0, 278.0, 28.0, 28.0 ],
					"bgcolor" : [ 0.945098, 0.913725, 0.407843, 1.0 ],
					"bordercolor" : [ 0.945098, 0.913725, 0.407843, 1.0 ],
					"rounded" : 12,
					"grad1" : [ 0.945098, 0.913725, 0.407843, 1.0 ],
					"numinlets" : 1,
					"grad2" : [ 0.945098, 0.913725, 0.407843, 1.0 ],
					"id" : "obj-43",
					"numoutlets" : 0
				}

			}
, 			{
				"box" : 				{
					"maxclass" : "panel",
					"patching_rect" : [ 140.0, 278.0, 28.0, 28.0 ],
					"bgcolor" : [ 0.945098, 0.913725, 0.407843, 1.0 ],
					"bordercolor" : [ 0.945098, 0.913725, 0.407843, 1.0 ],
					"rounded" : 12,
					"grad1" : [ 0.945098, 0.913725, 0.407843, 1.0 ],
					"numinlets" : 1,
					"grad2" : [ 0.945098, 0.913725, 0.407843, 1.0 ],
					"id" : "obj-44",
					"numoutlets" : 0
				}

			}
, 			{
				"box" : 				{
					"maxclass" : "panel",
					"patching_rect" : [ 125.0, 263.0, 28.0, 28.0 ],
					"bgcolor" : [ 0.945098, 0.913725, 0.407843, 1.0 ],
					"bordercolor" : [ 0.945098, 0.913725, 0.407843, 1.0 ],
					"rounded" : 12,
					"grad1" : [ 0.945098, 0.913725, 0.407843, 1.0 ],
					"numinlets" : 1,
					"grad2" : [ 0.945098, 0.913725, 0.407843, 1.0 ],
					"id" : "obj-29",
					"numoutlets" : 0
				}

			}
, 			{
				"box" : 				{
					"maxclass" : "panel",
					"patching_rect" : [ 125.0, 263.0, 28.0, 28.0 ],
					"bgcolor" : [ 0.945098, 0.913725, 0.407843, 1.0 ],
					"bordercolor" : [ 0.945098, 0.913725, 0.407843, 1.0 ],
					"rounded" : 12,
					"grad1" : [ 0.945098, 0.913725, 0.407843, 1.0 ],
					"numinlets" : 1,
					"grad2" : [ 0.945098, 0.913725, 0.407843, 1.0 ],
					"id" : "obj-30",
					"numoutlets" : 0
				}

			}
, 			{
				"box" : 				{
					"maxclass" : "panel",
					"patching_rect" : [ 125.0, 263.0, 28.0, 28.0 ],
					"bgcolor" : [ 0.945098, 0.913725, 0.407843, 1.0 ],
					"bordercolor" : [ 0.945098, 0.913725, 0.407843, 1.0 ],
					"rounded" : 12,
					"grad1" : [ 0.945098, 0.913725, 0.407843, 1.0 ],
					"numinlets" : 1,
					"grad2" : [ 0.945098, 0.913725, 0.407843, 1.0 ],
					"id" : "obj-31",
					"numoutlets" : 0
				}

			}
, 			{
				"box" : 				{
					"maxclass" : "panel",
					"patching_rect" : [ 125.0, 263.0, 28.0, 28.0 ],
					"bgcolor" : [ 0.945098, 0.913725, 0.407843, 1.0 ],
					"bordercolor" : [ 0.945098, 0.913725, 0.407843, 1.0 ],
					"rounded" : 12,
					"grad1" : [ 0.945098, 0.913725, 0.407843, 1.0 ],
					"numinlets" : 1,
					"grad2" : [ 0.945098, 0.913725, 0.407843, 1.0 ],
					"id" : "obj-32",
					"numoutlets" : 0
				}

			}
, 			{
				"box" : 				{
					"maxclass" : "panel",
					"patching_rect" : [ 125.0, 263.0, 28.0, 28.0 ],
					"bgcolor" : [ 0.945098, 0.913725, 0.407843, 1.0 ],
					"bordercolor" : [ 0.945098, 0.913725, 0.407843, 1.0 ],
					"rounded" : 12,
					"grad1" : [ 0.945098, 0.913725, 0.407843, 1.0 ],
					"numinlets" : 1,
					"grad2" : [ 0.945098, 0.913725, 0.407843, 1.0 ],
					"id" : "obj-33",
					"numoutlets" : 0
				}

			}
, 			{
				"box" : 				{
					"maxclass" : "panel",
					"patching_rect" : [ 125.0, 263.0, 28.0, 28.0 ],
					"bgcolor" : [ 0.945098, 0.913725, 0.407843, 1.0 ],
					"bordercolor" : [ 0.945098, 0.913725, 0.407843, 1.0 ],
					"rounded" : 12,
					"grad1" : [ 0.945098, 0.913725, 0.407843, 1.0 ],
					"numinlets" : 1,
					"grad2" : [ 0.945098, 0.913725, 0.407843, 1.0 ],
					"id" : "obj-34",
					"numoutlets" : 0
				}

			}
, 			{
				"box" : 				{
					"maxclass" : "panel",
					"patching_rect" : [ 125.0, 263.0, 28.0, 28.0 ],
					"bgcolor" : [ 0.945098, 0.913725, 0.407843, 1.0 ],
					"bordercolor" : [ 0.945098, 0.913725, 0.407843, 1.0 ],
					"rounded" : 12,
					"grad1" : [ 0.945098, 0.913725, 0.407843, 1.0 ],
					"numinlets" : 1,
					"grad2" : [ 0.945098, 0.913725, 0.407843, 1.0 ],
					"id" : "obj-35",
					"numoutlets" : 0
				}

			}
, 			{
				"box" : 				{
					"maxclass" : "panel",
					"patching_rect" : [ 125.0, 263.0, 28.0, 28.0 ],
					"bgcolor" : [ 0.945098, 0.913725, 0.407843, 1.0 ],
					"bordercolor" : [ 0.945098, 0.913725, 0.407843, 1.0 ],
					"rounded" : 12,
					"grad1" : [ 0.945098, 0.913725, 0.407843, 1.0 ],
					"numinlets" : 1,
					"grad2" : [ 0.945098, 0.913725, 0.407843, 1.0 ],
					"id" : "obj-36",
					"numoutlets" : 0
				}

			}
, 			{
				"box" : 				{
					"maxclass" : "panel",
					"patching_rect" : [ 110.0, 248.0, 28.0, 28.0 ],
					"bgcolor" : [ 0.945098, 0.913725, 0.407843, 1.0 ],
					"bordercolor" : [ 0.945098, 0.913725, 0.407843, 1.0 ],
					"rounded" : 12,
					"grad1" : [ 0.945098, 0.913725, 0.407843, 1.0 ],
					"numinlets" : 1,
					"grad2" : [ 0.945098, 0.913725, 0.407843, 1.0 ],
					"id" : "obj-21",
					"numoutlets" : 0
				}

			}
, 			{
				"box" : 				{
					"maxclass" : "panel",
					"patching_rect" : [ 110.0, 248.0, 28.0, 28.0 ],
					"bgcolor" : [ 0.945098, 0.913725, 0.407843, 1.0 ],
					"bordercolor" : [ 0.945098, 0.913725, 0.407843, 1.0 ],
					"rounded" : 12,
					"grad1" : [ 0.945098, 0.913725, 0.407843, 1.0 ],
					"numinlets" : 1,
					"grad2" : [ 0.945098, 0.913725, 0.407843, 1.0 ],
					"id" : "obj-22",
					"numoutlets" : 0
				}

			}
, 			{
				"box" : 				{
					"maxclass" : "panel",
					"patching_rect" : [ 110.0, 248.0, 28.0, 28.0 ],
					"bgcolor" : [ 0.945098, 0.913725, 0.407843, 1.0 ],
					"bordercolor" : [ 0.945098, 0.913725, 0.407843, 1.0 ],
					"rounded" : 12,
					"grad1" : [ 0.945098, 0.913725, 0.407843, 1.0 ],
					"numinlets" : 1,
					"grad2" : [ 0.945098, 0.913725, 0.407843, 1.0 ],
					"id" : "obj-23",
					"numoutlets" : 0
				}

			}
, 			{
				"box" : 				{
					"maxclass" : "panel",
					"patching_rect" : [ 110.0, 248.0, 28.0, 28.0 ],
					"bgcolor" : [ 0.945098, 0.913725, 0.407843, 1.0 ],
					"bordercolor" : [ 0.945098, 0.913725, 0.407843, 1.0 ],
					"rounded" : 12,
					"grad1" : [ 0.945098, 0.913725, 0.407843, 1.0 ],
					"numinlets" : 1,
					"grad2" : [ 0.945098, 0.913725, 0.407843, 1.0 ],
					"id" : "obj-24",
					"numoutlets" : 0
				}

			}
, 			{
				"box" : 				{
					"maxclass" : "panel",
					"patching_rect" : [ 110.0, 248.0, 28.0, 28.0 ],
					"bgcolor" : [ 0.945098, 0.913725, 0.407843, 1.0 ],
					"bordercolor" : [ 0.945098, 0.913725, 0.407843, 1.0 ],
					"rounded" : 12,
					"grad1" : [ 0.945098, 0.913725, 0.407843, 1.0 ],
					"numinlets" : 1,
					"grad2" : [ 0.945098, 0.913725, 0.407843, 1.0 ],
					"id" : "obj-25",
					"numoutlets" : 0
				}

			}
, 			{
				"box" : 				{
					"maxclass" : "panel",
					"patching_rect" : [ 110.0, 248.0, 28.0, 28.0 ],
					"bgcolor" : [ 0.945098, 0.913725, 0.407843, 1.0 ],
					"bordercolor" : [ 0.945098, 0.913725, 0.407843, 1.0 ],
					"rounded" : 12,
					"grad1" : [ 0.945098, 0.913725, 0.407843, 1.0 ],
					"numinlets" : 1,
					"grad2" : [ 0.945098, 0.913725, 0.407843, 1.0 ],
					"id" : "obj-26",
					"numoutlets" : 0
				}

			}
, 			{
				"box" : 				{
					"maxclass" : "panel",
					"patching_rect" : [ 110.0, 248.0, 28.0, 28.0 ],
					"bgcolor" : [ 0.945098, 0.913725, 0.407843, 1.0 ],
					"bordercolor" : [ 0.945098, 0.913725, 0.407843, 1.0 ],
					"rounded" : 12,
					"grad1" : [ 0.945098, 0.913725, 0.407843, 1.0 ],
					"numinlets" : 1,
					"grad2" : [ 0.945098, 0.913725, 0.407843, 1.0 ],
					"id" : "obj-27",
					"numoutlets" : 0
				}

			}
, 			{
				"box" : 				{
					"maxclass" : "panel",
					"patching_rect" : [ 110.0, 248.0, 28.0, 28.0 ],
					"bgcolor" : [ 0.945098, 0.913725, 0.407843, 1.0 ],
					"bordercolor" : [ 0.945098, 0.913725, 0.407843, 1.0 ],
					"rounded" : 12,
					"grad1" : [ 0.945098, 0.913725, 0.407843, 1.0 ],
					"numinlets" : 1,
					"grad2" : [ 0.945098, 0.913725, 0.407843, 1.0 ],
					"id" : "obj-28",
					"numoutlets" : 0
				}

			}
, 			{
				"box" : 				{
					"maxclass" : "panel",
					"patching_rect" : [ 95.0, 233.0, 28.0, 28.0 ],
					"bgcolor" : [ 0.945098, 0.913725, 0.407843, 1.0 ],
					"bordercolor" : [ 0.945098, 0.913725, 0.407843, 1.0 ],
					"rounded" : 12,
					"grad1" : [ 0.945098, 0.913725, 0.407843, 1.0 ],
					"numinlets" : 1,
					"grad2" : [ 0.945098, 0.913725, 0.407843, 1.0 ],
					"id" : "obj-13",
					"numoutlets" : 0
				}

			}
, 			{
				"box" : 				{
					"maxclass" : "panel",
					"patching_rect" : [ 95.0, 233.0, 28.0, 28.0 ],
					"bgcolor" : [ 0.945098, 0.913725, 0.407843, 1.0 ],
					"bordercolor" : [ 0.945098, 0.913725, 0.407843, 1.0 ],
					"rounded" : 12,
					"grad1" : [ 0.945098, 0.913725, 0.407843, 1.0 ],
					"numinlets" : 1,
					"grad2" : [ 0.945098, 0.913725, 0.407843, 1.0 ],
					"id" : "obj-14",
					"numoutlets" : 0
				}

			}
, 			{
				"box" : 				{
					"maxclass" : "panel",
					"patching_rect" : [ 95.0, 233.0, 28.0, 28.0 ],
					"bgcolor" : [ 0.945098, 0.913725, 0.407843, 1.0 ],
					"bordercolor" : [ 0.945098, 0.913725, 0.407843, 1.0 ],
					"rounded" : 12,
					"grad1" : [ 0.945098, 0.913725, 0.407843, 1.0 ],
					"numinlets" : 1,
					"grad2" : [ 0.945098, 0.913725, 0.407843, 1.0 ],
					"id" : "obj-15",
					"numoutlets" : 0
				}

			}
, 			{
				"box" : 				{
					"maxclass" : "panel",
					"patching_rect" : [ 95.0, 233.0, 28.0, 28.0 ],
					"bgcolor" : [ 0.945098, 0.913725, 0.407843, 1.0 ],
					"bordercolor" : [ 0.945098, 0.913725, 0.407843, 1.0 ],
					"rounded" : 12,
					"grad1" : [ 0.945098, 0.913725, 0.407843, 1.0 ],
					"numinlets" : 1,
					"grad2" : [ 0.945098, 0.913725, 0.407843, 1.0 ],
					"id" : "obj-16",
					"numoutlets" : 0
				}

			}
, 			{
				"box" : 				{
					"maxclass" : "panel",
					"patching_rect" : [ 95.0, 233.0, 28.0, 28.0 ],
					"bgcolor" : [ 0.945098, 0.913725, 0.407843, 1.0 ],
					"bordercolor" : [ 0.945098, 0.913725, 0.407843, 1.0 ],
					"rounded" : 12,
					"grad1" : [ 0.945098, 0.913725, 0.407843, 1.0 ],
					"numinlets" : 1,
					"grad2" : [ 0.945098, 0.913725, 0.407843, 1.0 ],
					"id" : "obj-17",
					"numoutlets" : 0
				}

			}
, 			{
				"box" : 				{
					"maxclass" : "panel",
					"patching_rect" : [ 95.0, 233.0, 28.0, 28.0 ],
					"bgcolor" : [ 0.945098, 0.913725, 0.407843, 1.0 ],
					"bordercolor" : [ 0.945098, 0.913725, 0.407843, 1.0 ],
					"rounded" : 12,
					"grad1" : [ 0.945098, 0.913725, 0.407843, 1.0 ],
					"numinlets" : 1,
					"grad2" : [ 0.945098, 0.913725, 0.407843, 1.0 ],
					"id" : "obj-18",
					"numoutlets" : 0
				}

			}
, 			{
				"box" : 				{
					"maxclass" : "panel",
					"patching_rect" : [ 95.0, 233.0, 28.0, 28.0 ],
					"bgcolor" : [ 0.945098, 0.913725, 0.407843, 1.0 ],
					"bordercolor" : [ 0.945098, 0.913725, 0.407843, 1.0 ],
					"rounded" : 12,
					"grad1" : [ 0.945098, 0.913725, 0.407843, 1.0 ],
					"numinlets" : 1,
					"grad2" : [ 0.945098, 0.913725, 0.407843, 1.0 ],
					"id" : "obj-19",
					"numoutlets" : 0
				}

			}
, 			{
				"box" : 				{
					"maxclass" : "panel",
					"patching_rect" : [ 95.0, 233.0, 28.0, 28.0 ],
					"bgcolor" : [ 0.945098, 0.913725, 0.407843, 1.0 ],
					"bordercolor" : [ 0.945098, 0.913725, 0.407843, 1.0 ],
					"rounded" : 12,
					"grad1" : [ 0.945098, 0.913725, 0.407843, 1.0 ],
					"numinlets" : 1,
					"grad2" : [ 0.945098, 0.913725, 0.407843, 1.0 ],
					"id" : "obj-20",
					"numoutlets" : 0
				}

			}
, 			{
				"box" : 				{
					"maxclass" : "panel",
					"patching_rect" : [ 80.0, 218.0, 28.0, 28.0 ],
					"bgcolor" : [ 0.945098, 0.913725, 0.407843, 1.0 ],
					"bordercolor" : [ 0.945098, 0.913725, 0.407843, 1.0 ],
					"rounded" : 12,
					"grad1" : [ 0.945098, 0.913725, 0.407843, 1.0 ],
					"numinlets" : 1,
					"grad2" : [ 0.945098, 0.913725, 0.407843, 1.0 ],
					"id" : "obj-12",
					"numoutlets" : 0
				}

			}
, 			{
				"box" : 				{
					"maxclass" : "panel",
					"patching_rect" : [ 80.0, 218.0, 28.0, 28.0 ],
					"bgcolor" : [ 0.945098, 0.913725, 0.407843, 1.0 ],
					"bordercolor" : [ 0.945098, 0.913725, 0.407843, 1.0 ],
					"rounded" : 12,
					"grad1" : [ 0.945098, 0.913725, 0.407843, 1.0 ],
					"numinlets" : 1,
					"grad2" : [ 0.945098, 0.913725, 0.407843, 1.0 ],
					"id" : "obj-10",
					"numoutlets" : 0
				}

			}
, 			{
				"box" : 				{
					"maxclass" : "panel",
					"patching_rect" : [ 80.0, 218.0, 28.0, 28.0 ],
					"bgcolor" : [ 0.945098, 0.913725, 0.407843, 1.0 ],
					"bordercolor" : [ 0.945098, 0.913725, 0.407843, 1.0 ],
					"rounded" : 12,
					"grad1" : [ 0.945098, 0.913725, 0.407843, 1.0 ],
					"numinlets" : 1,
					"grad2" : [ 0.945098, 0.913725, 0.407843, 1.0 ],
					"id" : "obj-9",
					"numoutlets" : 0
				}

			}
, 			{
				"box" : 				{
					"maxclass" : "panel",
					"patching_rect" : [ 80.0, 218.0, 28.0, 28.0 ],
					"bgcolor" : [ 0.945098, 0.913725, 0.407843, 1.0 ],
					"bordercolor" : [ 0.945098, 0.913725, 0.407843, 1.0 ],
					"rounded" : 12,
					"grad1" : [ 0.945098, 0.913725, 0.407843, 1.0 ],
					"numinlets" : 1,
					"grad2" : [ 0.945098, 0.913725, 0.407843, 1.0 ],
					"id" : "obj-8",
					"numoutlets" : 0
				}

			}
, 			{
				"box" : 				{
					"maxclass" : "panel",
					"patching_rect" : [ 80.0, 218.0, 28.0, 28.0 ],
					"bgcolor" : [ 0.945098, 0.913725, 0.407843, 1.0 ],
					"bordercolor" : [ 0.945098, 0.913725, 0.407843, 1.0 ],
					"rounded" : 12,
					"grad1" : [ 0.945098, 0.913725, 0.407843, 1.0 ],
					"numinlets" : 1,
					"grad2" : [ 0.945098, 0.913725, 0.407843, 1.0 ],
					"id" : "obj-7",
					"numoutlets" : 0
				}

			}
, 			{
				"box" : 				{
					"maxclass" : "panel",
					"patching_rect" : [ 80.0, 218.0, 28.0, 28.0 ],
					"bgcolor" : [ 0.945098, 0.913725, 0.407843, 1.0 ],
					"bordercolor" : [ 0.945098, 0.913725, 0.407843, 1.0 ],
					"rounded" : 12,
					"grad1" : [ 0.945098, 0.913725, 0.407843, 1.0 ],
					"numinlets" : 1,
					"grad2" : [ 0.945098, 0.913725, 0.407843, 1.0 ],
					"id" : "obj-6",
					"numoutlets" : 0
				}

			}
, 			{
				"box" : 				{
					"maxclass" : "panel",
					"patching_rect" : [ 80.0, 218.0, 28.0, 28.0 ],
					"bgcolor" : [ 0.945098, 0.913725, 0.407843, 1.0 ],
					"bordercolor" : [ 0.945098, 0.913725, 0.407843, 1.0 ],
					"rounded" : 12,
					"grad1" : [ 0.945098, 0.913725, 0.407843, 1.0 ],
					"numinlets" : 1,
					"grad2" : [ 0.945098, 0.913725, 0.407843, 1.0 ],
					"id" : "obj-5",
					"numoutlets" : 0
				}

			}
, 			{
				"box" : 				{
					"maxclass" : "panel",
					"patching_rect" : [ 80.0, 218.0, 28.0, 28.0 ],
					"bgcolor" : [ 0.945098, 0.913725, 0.407843, 1.0 ],
					"bordercolor" : [ 0.945098, 0.913725, 0.407843, 1.0 ],
					"rounded" : 12,
					"grad1" : [ 0.945098, 0.913725, 0.407843, 1.0 ],
					"numinlets" : 1,
					"grad2" : [ 0.945098, 0.913725, 0.407843, 1.0 ],
					"id" : "obj-4",
					"numoutlets" : 0
				}

			}
 ],
		"lines" : [ 			{
				"patchline" : 				{
					"source" : [ "obj-2", 6 ],
					"destination" : [ "obj-258", 0 ],
					"hidden" : 0,
					"color" : [ 0.0, 0.0, 0.0, 0.0 ],
					"midpoints" : [ 245.5, 132.0, 21.0, 132.0, 21.0, 42.0, 10.5, 42.0 ]
				}

			}
, 			{
				"patchline" : 				{
					"source" : [ "obj-2", 5 ],
					"destination" : [ "obj-261", 0 ],
					"hidden" : 0,
					"color" : [ 0.0, 0.0, 0.0, 0.0 ],
					"midpoints" : [ 241.5, 132.0, 63.0, 132.0, 63.0, 72.0, 48.0, 72.0, 48.0, 57.0, 16.5, 57.0 ]
				}

			}
, 			{
				"patchline" : 				{
					"source" : [ "obj-2", 4 ],
					"destination" : [ "obj-260", 0 ],
					"hidden" : 0,
					"color" : [ 0.0, 0.0, 0.0, 0.0 ],
					"midpoints" : [ 237.5, 150.0, 99.0, 150.0, 99.0, 135.0, 30.5, 135.0 ]
				}

			}
, 			{
				"patchline" : 				{
					"source" : [ "obj-2", 3 ],
					"destination" : [ "obj-263", 0 ],
					"hidden" : 0,
					"color" : [ 0.0, 0.0, 0.0, 0.0 ],
					"midpoints" : [ 233.5, 123.0, 72.0, 123.0, 72.0, 36.0, 44.5, 36.0 ]
				}

			}
, 			{
				"patchline" : 				{
					"source" : [ "obj-2", 2 ],
					"destination" : [ "obj-259", 0 ],
					"hidden" : 0,
					"color" : [ 0.0, 0.0, 0.0, 0.0 ],
					"midpoints" : [ 229.5, 123.0, 72.0, 123.0, 72.0, 21.0, 50.5, 21.0 ]
				}

			}
, 			{
				"patchline" : 				{
					"source" : [ "obj-2", 1 ],
					"destination" : [ "obj-264", 0 ],
					"hidden" : 0,
					"color" : [ 0.0, 0.0, 0.0, 0.0 ],
					"midpoints" : [ 225.5, 123.0, 72.0, 123.0, 72.0, 3.0, 44.5, 3.0 ]
				}

			}
, 			{
				"patchline" : 				{
					"source" : [ "obj-2", 0 ],
					"destination" : [ "obj-257", 0 ],
					"hidden" : 0,
					"color" : [ 0.0, 0.0, 0.0, 0.0 ],
					"midpoints" : [ 221.5, 123.0, 72.0, 123.0, 72.0, 0.0, 30.5, 0.0 ]
				}

			}
, 			{
				"patchline" : 				{
					"source" : [ "obj-1", 0 ],
					"destination" : [ "obj-2", 0 ],
					"hidden" : 0,
					"midpoints" : [  ]
				}

			}
, 			{
				"patchline" : 				{
					"source" : [ "obj-2", 7 ],
					"destination" : [ "obj-262", 0 ],
					"hidden" : 0,
					"color" : [ 0.0, 0.0, 0.0, 0.0 ],
					"midpoints" : [ 249.5, 132.0, 72.0, 132.0, 72.0, 0.0, 21.0, 0.0, 21.0, 6.0, 16.5, 6.0 ]
				}

			}
 ]
	}

}
